<svg width="32" height="32" viewBox="0 0 32 32" fill="none" xmlns="http://www.w3.org/2000/svg">
<path d="M17.9912 24.1053C17.0471 22.7005 16.0588 20.8484 16.0588 19.1842C16.0588 17.5468 16.9059 16.0526 18.1765 15.1579H17.8235V13.3684H19.5882V14.4689C20.0294 14.3437 20.4706 14.2632 20.9118 14.2632C21.0618 14.2632 21.2118 14.2632 21.3529 14.29V8H9V24.1053H14.2941V20.9737H16.0588V24.1053H17.9912ZM17.8235 9.78947H19.5882V11.5789H17.8235V9.78947ZM12.5294 22.3158H10.7647V20.5263H12.5294V22.3158ZM12.5294 18.7368H10.7647V16.9474H12.5294V18.7368ZM12.5294 15.1579H10.7647V13.3684H12.5294V15.1579ZM12.5294 11.5789H10.7647V9.78947H12.5294V11.5789ZM14.2941 9.78947H16.0588V11.5789H14.2941V9.78947ZM14.2941 13.3684H16.0588V15.1579H14.2941V13.3684ZM14.2941 18.7368V16.9474H16.0588V18.7368H14.2941ZM20.9118 16.0526C19.2353 16.0526 17.8235 17.4932 17.8235 19.1842C17.8235 21.5195 20.9118 25 20.9118 25C20.9118 25 24 21.5195 24 19.1842C24 17.4932 22.5882 16.0526 20.9118 16.0526ZM20.9118 20.3563C20.2941 20.3563 19.8529 19.8195 19.8529 19.2826C19.8529 18.6563 20.3824 18.2089 20.9118 18.2089C21.4412 18.2089 21.9706 18.7368 21.9706 19.2826C22.0588 19.8195 21.5294 20.3563 20.9118 20.3563Z" fill="white"/>
<circle cx="16" cy="16" r="15.25" stroke="white" stroke-width="1.5"/>
</svg>
