<svg width="32" height="32" viewBox="0 0 32 32" fill="none" xmlns="http://www.w3.org/2000/svg">
<path d="M15.9976 11.3821C13.4422 11.3821 11.3798 13.4445 11.3798 16C11.3798 18.5555 13.4422 20.6179 15.9976 20.6179C18.553 20.6179 20.6154 18.5555 20.6154 16C20.6154 13.4445 18.553 11.3821 15.9976 11.3821ZM15.9976 19.0013C14.345 19.0013 12.9964 17.6526 12.9964 16C12.9964 14.3474 14.345 12.9987 15.9976 12.9987C17.6502 12.9987 18.9988 14.3474 18.9988 16C18.9988 17.6526 17.6502 19.0013 15.9976 19.0013ZM20.8045 10.1168C20.2078 10.1168 19.726 10.5986 19.726 11.1953C19.726 11.7919 20.2078 12.2737 20.8045 12.2737C21.4011 12.2737 21.8829 11.7942 21.8829 11.1953C21.8831 11.0536 21.8554 10.9133 21.8012 10.7823C21.7471 10.6514 21.6677 10.5324 21.5675 10.4323C21.4673 10.3321 21.3483 10.2526 21.2174 10.1985C21.0865 10.1444 20.9462 10.1166 20.8045 10.1168ZM24.999 16C24.999 14.7572 25.0103 13.5256 24.9405 12.285C24.8707 10.844 24.5419 9.56515 23.4883 8.51144C22.4323 7.45548 21.1557 7.12901 19.7148 7.05921C18.472 6.98941 17.2404 7.00067 15.9998 7.00067C14.757 7.00067 13.5255 6.98941 12.2849 7.05921C10.8439 7.12901 9.5651 7.45773 8.51141 8.51144C7.45547 9.5674 7.129 10.844 7.05921 12.285C6.98941 13.5278 7.00067 14.7594 7.00067 16C7.00067 17.2406 6.98941 18.4744 7.05921 19.715C7.129 21.156 7.45772 22.4348 8.51141 23.4886C9.56736 24.5445 10.8439 24.871 12.2849 24.9408C13.5277 25.0106 14.7593 24.9993 15.9998 24.9993C17.2426 24.9993 18.4742 25.0106 19.7148 24.9408C21.1557 24.871 22.4346 24.5423 23.4883 23.4886C24.5442 22.4326 24.8707 21.156 24.9405 19.715C25.0125 18.4744 24.999 17.2428 24.999 16ZM23.0177 21.3091C22.8533 21.7189 22.6552 22.0251 22.3377 22.3403C22.0203 22.6577 21.7163 22.8559 21.3066 23.0202C20.1223 23.4908 17.3102 23.385 15.9976 23.385C14.685 23.385 11.8706 23.4908 10.6863 23.0225C10.2766 22.8581 9.97037 22.66 9.65516 22.3425C9.33771 22.0251 9.13958 21.7211 8.97522 21.3113C8.50691 20.1248 8.61273 17.3126 8.61273 16C8.61273 14.6874 8.50691 11.873 8.97522 10.6887C9.13958 10.2789 9.33771 9.97268 9.65516 9.65746C9.97262 9.34225 10.2766 9.14187 10.6863 8.97751C11.8706 8.50919 14.685 8.61501 15.9976 8.61501C17.3102 8.61501 20.1245 8.50919 21.3088 8.97751C21.7186 9.14187 22.0248 9.34 22.34 9.65746C22.6575 9.97493 22.8556 10.2789 23.0199 10.6887C23.4883 11.873 23.3824 14.6874 23.3824 16C23.3824 17.3126 23.4883 20.1248 23.0177 21.3091Z" fill="white"/>
<circle cx="16" cy="16" r="15.25" stroke="white" stroke-width="1.5"/>
</svg>
