<svg width="32" height="32" viewBox="0 0 32 32" fill="none" xmlns="http://www.w3.org/2000/svg">
<path d="M17.1149 7.00492C17.3452 6.98664 17.5767 7.01945 17.7938 7.10113C18.0109 7.18282 18.2087 7.31152 18.3739 7.47862C18.5391 7.64571 18.6679 7.84737 18.7518 8.07011C18.8356 8.29285 18.8726 8.53154 18.8601 8.77023V8.76573C18.8329 9.37361 18.5805 9.94729 18.1552 10.3676C17.7299 10.788 17.1645 11.0227 16.5764 11.023L16.5293 11.0222H16.5314C16.298 11.0484 16.0619 11.0197 15.8407 10.9382C15.6195 10.8567 15.4189 10.7246 15.254 10.5517C15.089 10.3788 14.964 10.1696 14.8881 9.93969C14.8123 9.70977 14.7876 9.4651 14.8159 9.22393L14.8152 9.23143C14.8371 8.6208 15.0915 8.0439 15.5228 7.62653C15.9542 7.20917 16.5275 6.98518 17.1178 7.00342H17.1142L17.1149 7.00492ZM13.5294 24.9985C12.6104 24.9985 11.9357 24.4113 12.5793 21.8293L13.6345 17.2488C13.8186 16.5154 13.8483 16.2222 13.6345 16.2222C12.8494 16.4265 12.105 16.7714 11.4349 17.2413L11.4588 17.2256L11 16.4329C13.2366 14.4666 15.811 13.314 16.9127 13.314C17.8317 13.314 17.9853 14.4584 17.5251 16.2192L16.3176 21.0344C16.1031 21.8856 16.1959 22.1788 16.409 22.1788C17.1775 21.9986 17.8905 21.6234 18.484 21.0869L18.4782 21.0922L19 21.8263C16.8228 24.1151 14.4477 25 13.5287 25L13.5294 24.9985Z" fill="white"/>
<circle cx="16" cy="16" r="15.25" stroke="white" stroke-width="1.5"/>
</svg>
