<svg width="18" height="18" viewBox="0 0 18 18" fill="none" xmlns="http://www.w3.org/2000/svg">
<path d="M9.64648 0.0237349C8.35876 -0.0700034 7.06596 0.114621 5.85595 0.565058C4.64595 1.01549 3.54711 1.72118 2.63415 2.63415C1.72118 3.54711 1.01549 4.64595 0.565058 5.85595C0.114621 7.06596 -0.0700034 8.35876 0.0237349 9.64648C0.347794 14.4083 4.50655 18 9.27742 18H12.599C13.0941 18 13.4992 17.5949 13.4992 17.0998C13.4992 16.6047 13.0941 16.1997 12.599 16.1997H9.29542C5.93781 16.1997 2.85925 14.0213 2.0221 10.7717C0.680854 5.55074 5.54174 0.680855 10.7627 2.0311C14.0213 2.85925 16.1997 5.93781 16.1997 9.29542V10.2856C16.1997 10.9967 15.5606 11.6989 14.8494 11.6989C14.1383 11.6989 13.4992 10.9967 13.4992 10.2856V9.16039C13.4992 6.90098 11.8969 4.86661 9.66449 4.55156C8.95422 4.44594 8.229 4.51153 7.5492 4.74286C6.86941 4.97418 6.25471 5.36456 5.75628 5.88148C5.25786 6.3984 4.89013 7.0269 4.68371 7.71467C4.47729 8.40244 4.43815 9.12957 4.56956 9.83552C4.72744 10.6861 5.12732 11.4732 5.72127 12.1023C6.31521 12.7313 7.078 13.1757 7.91817 13.3822C9.57447 13.7692 11.1498 13.2381 12.1849 12.1849C12.9861 13.2831 14.5884 13.8592 16.0556 13.2741C17.2619 12.7971 18 11.5638 18 10.2676V9.28642C18 4.50655 14.4083 0.347794 9.64648 0.0237349ZM8.99837 11.6989C7.50409 11.6989 6.29787 10.4926 6.29787 8.99837C6.29787 7.50409 7.50409 6.29787 8.99837 6.29787C10.4926 6.29787 11.6989 7.50409 11.6989 8.99837C11.6989 10.4926 10.4926 11.6989 8.99837 11.6989Z" fill="white"/>
</svg>
